<svg width="25" height="21" viewBox="0 0 25 21" fill="none" xmlns="http://www.w3.org/2000/svg">
<path d="M21.9031 4.60014L21.9031 4.6001H21.9002H15.4984V2.5251C15.4984 1.92173 15.2587 1.34308 14.8321 0.91643C14.4055 0.489785 13.8268 0.250098 13.2234 0.250098H3.07344C2.47007 0.250098 1.89141 0.489785 1.46477 0.91643C1.03812 1.34307 0.798437 1.92173 0.798437 2.5251V17.7501C0.798437 18.5457 1.11451 19.3088 1.67712 19.8714C2.23973 20.434 3.00279 20.7501 3.79844 20.7501H16.077C17.061 20.7797 18.0679 20.1988 18.3538 18.966L18.9492 16.4001H21.9234C22.5268 16.4001 23.1055 16.1604 23.5321 15.7338C23.9587 15.3071 24.1984 14.7285 24.1984 14.1251V6.994C24.1984 5.50748 23.0591 4.63338 21.9031 4.60014ZM21.9234 14.7501H19.3335L21.1711 6.83682L21.1712 6.83679C21.3588 6.02774 22.5484 6.16446 22.5484 6.994V14.1251C22.5484 14.2909 22.4826 14.4498 22.3654 14.567C22.2482 14.6842 22.0892 14.7501 21.9234 14.7501ZM15.4984 18.449V6.2501H19.6232C19.6017 6.31855 19.5822 6.38889 19.5643 6.46107L19.564 6.46242L16.7467 18.5931C16.5765 19.325 15.4984 19.2021 15.4984 18.449ZM5.97344 6.2501C6.19224 6.2501 6.40208 6.16318 6.5568 6.00846C6.71152 5.85374 6.79844 5.6439 6.79844 5.4251C6.79844 5.20629 6.71152 4.99645 6.5568 4.84173C6.40208 4.68702 6.19224 4.6001 5.97344 4.6001C5.75463 4.6001 5.54479 4.68702 5.39007 4.84173C5.23536 4.99645 5.14844 5.20629 5.14844 5.4251C5.14844 5.6439 5.23536 5.85374 5.39007 6.00846C5.54479 6.16318 5.75463 6.2501 5.97344 6.2501ZM5.39007 9.91673C5.23536 10.0715 5.14844 10.2813 5.14844 10.5001C5.14844 10.7189 5.23536 10.9287 5.39007 11.0835C5.54479 11.2382 5.75463 11.3251 5.97344 11.3251H10.3234C10.5422 11.3251 10.7521 11.2382 10.9068 11.0835C11.0615 10.9287 11.1484 10.7189 11.1484 10.5001C11.1484 10.2813 11.0615 10.0715 10.9068 9.91673C10.7521 9.76202 10.5422 9.6751 10.3234 9.6751H5.97344C5.75463 9.6751 5.54479 9.76202 5.39007 9.91673ZM5.97344 14.7501C5.75463 14.7501 5.54479 14.837 5.39007 14.9917C5.23536 15.1465 5.14844 15.3563 5.14844 15.5751C5.14844 15.7939 5.23536 16.0037 5.39007 16.1585C5.54479 16.3132 5.75463 16.4001 5.97344 16.4001H10.3234C10.5422 16.4001 10.7521 16.3132 10.9068 16.1585C11.0615 16.0037 11.1484 15.7939 11.1484 15.5751C11.1484 15.3563 11.0615 15.1465 10.9068 14.9917C10.7521 14.837 10.5422 14.7501 10.3234 14.7501H5.97344ZM2.44844 2.5251C2.44844 2.35934 2.51429 2.20037 2.6315 2.08316C2.74871 1.96595 2.90768 1.9001 3.07344 1.9001H13.2234C13.3892 1.9001 13.5482 1.96595 13.6654 2.08316C13.7826 2.20037 13.8484 2.35934 13.8484 2.5251V18.449C13.8484 18.6827 13.8776 18.9 13.9305 19.1001H3.79844C3.4404 19.1001 3.09702 18.9579 2.84384 18.7047C2.59067 18.4515 2.44844 18.1081 2.44844 17.7501V2.5251Z" fill="#46A644" stroke="#46A644" stroke-width="0.2"/>
</svg>
